<svg version="1.1" xmlns="http://www.w3.org/2000/svg" xmlns:xlink="http://www.w3.org/1999/xlink" width="48" height="48"><defs><linearGradient x1="9.15049" y1="9.1503" x2="63.65465" y2="63.65484" gradientUnits="userSpaceOnUse" id="color-1"><stop offset="0" stop-color="#000000" stop-opacity="0.47"></stop><stop offset="1" stop-color="#000000" stop-opacity="0"></stop></linearGradient><filter id="dropshadow-base"><feColorMatrix type="matrix" values="0 0 0 0 0  0 0 0 0 0  0 0 0 0 0  0 0 0 .8 0"></feColorMatrix> <feOffset dx="0" dy="1"></feOffset> <feGaussianBlur stdDeviation="1"></feGaussianBlur> <feComposite in="SourceGraphic"></feComposite></filter><filter id="dropshadow-banner" x="-10%" y="-10%" width="120%" height="130%"><feColorMatrix type="matrix" values="0 0 0 0 0  0 0 0 0 0  0 0 0 0 0  0 0 0 .4 0"></feColorMatrix> <feOffset dx="0" dy="1"></feOffset> <feGaussianBlur stdDeviation="0.5"></feGaussianBlur> <feComposite in="SourceGraphic"></feComposite></filter></defs><g fill="none" fill-rule="nonzero" stroke="none" stroke-width="none" stroke-linecap="butt" stroke-linejoin="miter" stroke-miterlimit="10" stroke-dasharray="" stroke-dashoffset="0" font-family="none" font-weight="none" font-size="none" text-anchor="none" style="mix-blend-mode: normal"><path d="M7,43c-1.10457,0 -2,-0.89543 -2,-2v-34c0,-1.10457 0.89543,-2 2,-2h34c1.10457,0 2,0.89543 2,2v34c0,1.10457 -0.89543,2 -2,2z" id="base 1 9 1" fill="#2d66a8" stroke-width="1"></path><path d="M9.15049,24c0,-8.18824 6.66146,-14.8497 14.84951,-14.8497c4.09401,0 7.80636,1.66534 10.49523,4.35421l8.50477,8.50477v18.99072c0,1.10457 -0.89543,2 -2,2h-18.99072l-8.50451,-8.50451c-2.6889,-2.6889 -4.35428,-6.40135 -4.35428,-10.49549z" fill="url(#color-1)" stroke-width="1"></path><path d="M24,38.8497c-8.18806,0 -14.84952,-6.66145 -14.84952,-14.8497c0,-8.18825 6.66145,-14.8497 14.84952,-14.8497c8.18806,0 14.84952,6.66145 14.84952,14.8497c0,8.18825 -6.66145,14.8497 -14.84952,14.8497zM31.44522,21.33512c0,-4.13588 -2.90276,-6.70534 -7.57541,-6.70534h-6.92258v18.74045h3.96905v-5.22132h2.95372c0.17409,0 0.35803,-0.00446 0.54737,-0.01376l3.81932,5.23527h4.91872l-4.6561,-6.37967c1.90083,-1.18662 2.94591,-3.19086 2.94591,-5.65561zM23.86981,24.18004h-2.95354v-5.58122h2.95372c3.60655,0 3.60655,2.05929 3.60655,2.7363c0,0.70342 0,2.84492 -3.60674,2.84492z" fill="none" stroke-width="0"></path><path d="M24,38.8497c-8.18806,0 -14.84952,-6.66145 -14.84952,-14.8497c0,-8.18825 6.66145,-14.8497 14.84952,-14.8497c8.18806,0 14.84952,6.66145 14.84952,14.8497c0,8.18825 -6.66145,14.8497 -14.84952,14.8497zM31.44522,21.33512c0,-4.13588 -2.90276,-6.70534 -7.57541,-6.70534h-6.92258v18.74045h3.96905v-5.22132h2.95372c0.17409,0 0.35803,-0.00446 0.54737,-0.01376l3.81932,5.23527h4.91872l-4.6561,-6.37967c1.90083,-1.18662 2.94591,-3.19086 2.94591,-5.65561zM23.86981,24.18004h-2.95354v-5.58122h2.95372c3.60655,0 3.60655,2.05929 3.60655,2.7363c0,0.70342 0,2.84492 -3.60674,2.84492z" fill="#ffffff" stroke-width="0"></path><path d="M2,24c0,-12.15026 9.84974,-22 22,-22c12.15026,0 22,9.84974 22,22c0,12.15026 -9.84974,22 -22,22c-12.15026,0 -22,-9.84974 -22,-22z" id="base 1 5 1" fill="none" stroke-width="1"></path><path d="M2,24c0,-12.15026 9.84974,-22 22,-22c12.15026,0 22,9.84974 22,22c0,12.15026 -9.84974,22 -22,22c-12.15026,0 -22,-9.84974 -22,-22z" id="base 1 1 1" fill="none" stroke-width="1"></path><g fill="#000000" stroke-width="1" font-family="Roboto, sans-serif" font-weight="normal" font-size="14" text-anchor="start"></g><rect x="2" y="2" width="44" height="22" fill="none" stroke-width="1"></rect><path d="M2,24v-22h44v22z" fill="none" stroke-width="1"></path><path d="M2,24v-22h44v22z" fill="none" stroke-width="1"></path><path d="M2,24v-22h44v22z" fill="none" stroke-width="1"></path><path d="M2,24v-22h44v22z" fill="none" stroke-width="1"></path><g id="Capa_1 1 1" fill="#000000" stroke-width="1" font-family="Roboto, sans-serif" font-weight="normal" font-size="14" text-anchor="start"><g></g><g></g><g></g><g></g><g></g><g></g><g></g><g></g><g></g><g></g><g></g><g></g><g></g></g><rect x="2" y="2" width="44" height="22" fill="none" stroke-width="1"></rect><path d="M2,24v-22h44v22z" fill="none" stroke-width="1"></path><path d="M2,24v-22h44v22z" fill="none" stroke-width="1"></path><path d="M2,24v-22h44v22z" fill="none" stroke-width="1"></path><path d="M2,24v-22h44v22z" fill="none" stroke-width="1"></path></g></svg>